<?xml version="1.0" encoding="utf-8"?>
<svg viewBox="0 0 16 16" xmlns="http://www.w3.org/2000/svg">
  <rect style="fill-rule: nonzero; stroke-linejoin: round; paint-order: fill; stroke: rgb(100, 80, 179); fill: rgb(150, 139, 216);" width="14.985" height="14.955" rx="0.5" ry="0.5" x="0.5" y="0.5" bx:origin="0 0"/>
  <path fill-rule="evenodd" d="M 8.001 13.983 C 12.612 13.983 15.496 8.99 13.188 4.995 C 12.118 3.141 10.14 2 8.001 2 C 3.388 2 0.506 6.993 2.812 10.986 C 3.884 12.839 5.86 13.983 8.001 13.983 Z M 6.128 4.995 C 5.509 4.995 5.006 5.499 5.006 6.118 L 5.006 9.863 C 5.006 10.482 5.38 10.986 5.755 10.986 L 5.755 10.239 C 5.755 9.824 6.089 9.489 6.502 9.489 L 10.247 9.489 L 10.247 10.239 L 9.498 10.239 L 9.498 10.986 L 10.621 10.986 C 10.828 10.986 10.996 10.818 10.996 10.612 L 10.996 5.371 C 10.996 5.163 10.828 4.995 10.621 4.995 L 6.128 4.995 Z M 6.502 10.425 C 6.502 10.322 6.586 10.239 6.69 10.239 L 8.751 10.239 L 8.751 12.308 C 8.751 12.451 8.595 12.541 8.469 12.469 C 8.456 12.462 8.442 12.451 8.43 12.441 L 7.758 11.775 C 7.685 11.703 7.568 11.703 7.494 11.775 L 6.822 12.441 C 6.719 12.541 6.546 12.495 6.509 12.356 C 6.506 12.339 6.502 12.323 6.502 12.308 L 6.502 10.425 Z" style="fill: rgb(100, 80, 179);"/>
</svg>